<svg xmlns="http://www.w3.org/2000/svg" width="333.387" height="142.631" viewBox="0 0 333.387 142.631">
    <defs>
        <style>
            .cls-1{fill:#40b1be}
        </style>
    </defs>
    <g id="Group_4118" transform="translate(-503.171 -195.474)">
        <g id="Group_1104" transform="translate(503.171 196.868)">
            <path id="Path_7642" d="M308.959 153.021H289v35.845h-20.5v-35.845h-58.7l-1.29-6.331a67.991 67.991 0 0 1 5.1-15.561 188.525 188.525 0 0 1 9.5-18.354q5.579-9.547 12.289-19.208T248.8 75.375q6.707-8.534 12.879-15.294a105.17 105.17 0 0 1 10.786-10.521H289v87.255h19.963zM268.5 136.816V79.775a37.021 37.021 0 0 1 .217-3.917 3.079 3.079 0 0 0-.752 1.126 3.113 3.113 0 0 1-.75 1.126q-1.614 1.61-4.4 4.937t-6.172 7.834q-3.379 4.508-7.19 9.983t-7.4 11.483q-3.6 6.013-6.816 12.233a131.367 131.367 0 0 0-5.581 12.235z" class="cls-1" transform="translate(-208.504 -49.561)"/>
        </g>
        <g id="Group_1105" transform="translate(622.75 195.474)">
            <path id="Path_7643" d="M352.313 119.815a127.438 127.438 0 0 1-3.273 30.214 69.849 69.849 0 0 1-9.5 22.59 43.194 43.194 0 0 1-15.188 14.114 45.142 45.142 0 0 1-40.192.321 39.226 39.226 0 0 1-14.38-13.306 65.33 65.33 0 0 1-8.748-21.519 130.267 130.267 0 0 1-2.952-29.193 151.935 151.935 0 0 1 2.952-31.605q2.952-13.791 9.016-23.236a40.913 40.913 0 0 1 15.185-14.327q9.121-4.884 21.357-4.884 45.722-.001 45.723 70.831zm-21.034 1.5q0-28.009-6.44-41.909t-18.89-13.9q-13.31 0-20.069 14.112t-6.76 42.77q0 26.4 6.654 39.495t19.534 13.092q12.767 0 19.37-13.309t6.601-40.348z" class="cls-1" transform="translate(-258.083 -48.983)"/>
        </g>
        <g id="Group_1106" transform="translate(736.103 196.868)">
            <path id="Path_7644" d="M405.536 153.021h-19.961v35.845h-20.5v-35.845h-58.706l-1.288-6.331a67.992 67.992 0 0 1 5.1-15.561 188.576 188.576 0 0 1 9.5-18.354q5.579-9.547 12.286-19.208t13.415-18.19q6.707-8.534 12.879-15.294a105.416 105.416 0 0 1 10.786-10.521h16.529v87.255h19.961zm-40.459-16.205V79.775a36.977 36.977 0 0 1 .215-3.917 3.048 3.048 0 0 0-.753 1.126 3.081 3.081 0 0 1-.75 1.126q-1.61 1.61-4.4 4.937t-6.172 7.834q-3.383 4.508-7.19 9.983t-7.407 11.483q-3.6 6.013-6.816 12.233a130.7 130.7 0 0 0-5.579 12.235z" class="cls-1" transform="translate(-305.081 -49.561)"/>
        </g>
    </g>
</svg>
