<svg xmlns="http://www.w3.org/2000/svg" width="18" height="18" viewBox="0 0 18 18">
    <defs>
        <style>
            .cls-2{fill:#fff}
        </style>
    </defs>
    <g id="Group_4108" transform="translate(-457 -368)">
        <circle id="Ellipse_143" cx="9" cy="9" r="9" fill="#40b1be" transform="translate(457 368)"/>
        <g id="transaction" transform="translate(460 372)">
            <g id="Group_1292" transform="translate(0 3.113)">
                <g id="Group_1291">
                    <path id="Path_13046" d="M10.376 167.533a1.037 1.037 0 0 1-.855-.45l-.508-.739A3.46 3.46 0 0 1 2.554 165h.329a.346.346 0 0 0 .285-.542l-.5-.733-.768-1.114a.346.346 0 0 0-.285-.15h-.042l-.041.008a.346.346 0 0 0-.2.14l-1.271 1.846a.346.346 0 0 0 .285.545H.7a5.3 5.3 0 0 0 9.042 3.4 5.34 5.34 0 0 0 .7-.871z" class="cls-2" transform="translate(0 -162.461)"/>
                </g>
            </g>
            <g id="Group_1294" transform="translate(4.858 3.113)">
                <g id="Group_1293">
                    <path id="Path_13047" d="M208.873 164.307h-.527a.181.181 0 0 1-.181-.181v-.263a.181.181 0 0 1 .181-.181h.527a.181.181 0 0 1 .181.181.346.346 0 0 0 .692 0 .874.874 0 0 0-.791-.869v-.185a.346.346 0 0 0-.692 0v.185a.874.874 0 0 0-.79.869v.263a.874.874 0 0 0 .873.873h.527a.181.181 0 0 1 .181.181v.263a.181.181 0 0 1-.181.181h-.527a.181.181 0 0 1-.181-.181.346.346 0 1 0-.692 0 .874.874 0 0 0 .791.869v.185a.346.346 0 0 0 .692 0v-.185a.874.874 0 0 0 .79-.869v-.263a.874.874 0 0 0-.873-.873z" class="cls-2" transform="translate(-207.473 -162.463)"/>
                </g>
            </g>
            <g id="Group_1296" transform="translate(1.54)">
                <g id="Group_1295">
                    <path id="Path_13048" d="M76.193 34.681a.346.346 0 0 0-.306-.185h-.357a5.3 5.3 0 0 0-9.042-3.4 5.339 5.339 0 0 0-.7.871h.074a1.037 1.037 0 0 1 .855.45l.508.739A3.46 3.46 0 0 1 73.68 34.5h-.329a.346.346 0 0 0-.285.542l.5.733.764 1.111a.346.346 0 0 0 .57 0l.458-.666.81-1.178a.346.346 0 0 0 .025-.361z" class="cls-2" transform="translate(-65.784 -29.539)"/>
                </g>
            </g>
        </g>
    </g>
</svg>
