<svg xmlns="http://www.w3.org/2000/svg" width="18" height="18" viewBox="0 0 18 18">
    <defs>
        <style>
            .cls-2{fill:#fff}
        </style>
    </defs>
    <g id="Group_4091" transform="translate(-137 -556)">
        <circle id="Ellipse_142" cx="9" cy="9" r="9" fill="#1f4bb1" transform="translate(137 556)"/>
        <g id="Group_3922" transform="translate(141 561)">
            <path id="Path_13054" d="M90 109.214h1.8v-.53a1.488 1.488 0 0 1 .682-1.25 1.091 1.091 0 1 1 1.613 0 1.488 1.488 0 0 1 .682 1.25v.53h1.8v-4.2H90z" class="cls-2" transform="translate(-88.215 -103.823)"/>
            <path id="Path_13055" d="M210.952 246.548h1.787v-.53a.893.893 0 1 0-1.787 0z" class="cls-2" transform="translate(-206.768 -241.156)"/>
            <circle id="Ellipse_132" cx=".496" cy=".496" r=".496" class="cls-2" transform="translate(4.581 2.38)"/>
            <path id="Path_13056" d="M38.987 51.618v-6.582h-8.963v6.582zm-.594-.595h-7.774V45.63h7.774z" class="cls-2" transform="translate(-29.429 -45.036)"/>
            <path id="Path_13057" d="M0 406.916h10.154v1.191H0z" class="cls-2" transform="translate(0 -399.739)"/>
        </g>
    </g>
</svg>
