<svg xmlns="http://www.w3.org/2000/svg" width="20" height="20" viewBox="0 0 20 20">
  <g id="Group_4171" data-name="Group 4171" transform="translate(-540 -249)">
    <circle id="Ellipse_166" data-name="Ellipse 166" cx="10" cy="10" r="10" transform="translate(540 249)" fill="#40b1be"/>
    <g id="Group_4170" data-name="Group 4170" transform="translate(-4960.171 -1777.139)">
      <path id="Path_16863" data-name="Path 16863" d="M13,41.362v2.57l.094.094a1.786,1.786,0,0,0,1.272.526h2.457a1.8,1.8,0,0,0,.893-.237l6-3.455a.51.51,0,0,0,.254-.445.522.522,0,0,0-.07-.26.514.514,0,0,0-.7-.186l-3.1,1.79a1.022,1.022,0,0,1-1.02,1.071c-.089,0-2.525-.64-2.525-.64a.257.257,0,0,1,.133-.5l2.257.6a.514.514,0,1,0,.266-.993l-3.416-.916a1.788,1.788,0,0,0-1.339.165Z" transform="translate(5493.057 1996.212)" fill="#fff"/>
      <path id="Path_16864" data-name="Path 16864" d="M5,42H6.542v4.625H5Z" transform="translate(5499 1994.653)" fill="#fff"/>
      <path id="Path_16866" data-name="Path 16866" d="M31.57,20a2.57,2.57,0,1,0,2.57,2.57A2.57,2.57,0,0,0,31.57,20Zm0,2.313a1.026,1.026,0,0,1,.257,2.019v.293a.257.257,0,1,1-.514,0v-.293a1.028,1.028,0,0,1-.771-.991.257.257,0,1,1,.514,0,.514.514,0,1,0,.514-.514,1.026,1.026,0,0,1-.257-2.019v-.293a.257.257,0,1,1,.514,0v.293a1.028,1.028,0,0,1,.771.991.257.257,0,0,1-.514,0,.514.514,0,1,0-.514.514Z" transform="translate(5481.167 2011)" fill="#fff"/>
    </g>
  </g>
</svg>
