<svg xmlns="http://www.w3.org/2000/svg" width="8.211" height="8.958" viewBox="0 0 8.211 8.958">
    <path d="M3.266 112.08a1.588 1.588 0 0 1-1.586-1.586v-3.826h-.654A1.027 1.027 0 0 0 0 107.694v5.039a1.027 1.027 0 0 0 1.026 1.026h4.666a1.027 1.027 0 0 0 1.026-1.026v-.653zm0 0" transform="translate(0 -104.802)"/>
    <path d="M133.972 1.026A1.026 1.026 0 0 0 132.945 0h-3.919A1.026 1.026 0 0 0 128 1.026v4.666a1.026 1.026 0 0 0 1.026 1.026h3.919a1.026 1.026 0 0 0 1.026-1.026zm0 0" transform="translate(-125.76)"/>
</svg>
