<svg xmlns="http://www.w3.org/2000/svg" width="11.526" height="11.526" viewBox="0 0 11.526 11.526">
  <g id="copy" transform="translate(-2.25 -2.25)">
    <path id="Path_16861" data-name="Path 16861" d="M17.233,9.823v7.409H9.823V9.823h7.409m0-.823H9.823A.823.823,0,0,0,9,9.823v7.409a.823.823,0,0,0,.823.823h7.409a.823.823,0,0,0,.823-.823V9.823A.823.823,0,0,0,17.233,9Z" transform="translate(-4.28 -4.28)"/>
    <path id="Path_16862" data-name="Path 16862" d="M3.073,8.836H2.25V3.073a.823.823,0,0,1,.823-.823H8.836v.823H3.073Z" transform="translate(0 0)"/>
  </g>
</svg>
