<svg xmlns="http://www.w3.org/2000/svg" width="22.554" height="22.086" viewBox="0 0 22.554 22.086">
    <defs>
        <style>
            .cls-1{fill:#2196f3}
        </style>
    </defs>
    <g id="disqus">
        <path id="Path_16828" d="M12.261 9.013h-1.214v5.615h1.214a2.668 2.668 0 0 0 2.967-2.792V11.8a2.675 2.675 0 0 0-2.967-2.787z" class="cls-1" transform="translate(-.666 -.778)"/>
        <path id="Path_16829" d="M11.688.25A10.955 10.955 0 0 0 .821 11.292a11.143 11.143 0 0 0 .98 4.581L0 20.356l4.663-.642a10.861 10.861 0 0 0 17.891-8.422A10.955 10.955 0 0 0 11.688.25zm5.933 11.01c0 3.186-2.26 5.553-6.133 5.553H7.4V5.771h4.15c3.843 0 6.072 2.272 6.072 5.458v.031z" class="cls-1" transform="translate(0 -.25)"/>
    </g>
</svg>
