<svg xmlns="http://www.w3.org/2000/svg" width="18" height="18" viewBox="0 0 18 18">
    <g transform="translate(-138 -457)">
        <circle cx="9" cy="9" r="9" fill="#40b1be" transform="translate(138 457)"/>
        <g>
            <g>
                <path fill="#fff" d="M69.538 8.468v-.935c0-1.1-.85-1.759-1.668-2.4a.647.647 0 0 1-.257-.513.868.868 0 0 1 .257-.62c.8-.669 1.668-1.3 1.668-2.4V.9h.641V0h-7.056v.9h.641v.7c0 1.1.873 1.732 1.668 2.4a.868.868 0 0 1 .257.614.646.646 0 0 1-.257.513c-.817.642-1.668 1.3-1.668 2.4v.935h-.641v.9h7.056v-.9zm-4.507-6.03a1.231 1.231 0 0 1-.369-.834V.9h3.978v.7a1.231 1.231 0 0 1-.369.834h-3.24zm3.609 5.78l-1.51-.59a1.523 1.523 0 0 0-.956 0l-1.511.59v-.685c0-.623.495-1.043 1.3-1.678l.021-.017a1.551 1.551 0 0 0 .573-.944.419.419 0 0 0 .183 0 1.549 1.549 0 0 0 .573.944l.022.017c.808.635 1.3 1.055 1.3 1.678v.684z" transform="translate(143.624 461.278) translate(-63.123)"/>
            </g>
        </g>
    </g>
</svg>
