<svg xmlns="http://www.w3.org/2000/svg" width="16.668" height="11.128" viewBox="0 0 16.668 11.128">
    <defs>
        <style>
            .cls-1{fill:#3498db}
        </style>
    </defs>
    <g id="Group_1614">
        <path id="Path_1026" d="M413.4 164.737h-.035z" class="cls-1" transform="translate(-399.907 -162.142)"/>
        <path id="Path_1027" d="M54.731 309.152l-1.884 1.46a.326.326 0 0 0 .4.515l1.884-1.46a.326.326 0 1 0-.4-.515z" class="cls-1" transform="translate(-51.004 -301.792)"/>
        <path id="Path_1028" d="M320.5 309.21a.326.326 0 0 0 .058.457l1.884 1.459a.326.326 0 1 0 .4-.515l-1.884-1.46a.326.326 0 0 0-.458.059z" class="cls-1" transform="translate(-310.002 -301.792)"/>
        <path id="Path_1029" d="M14.076 85.076a2.6 2.6 0 0 0-2.509 1.942H1.046l-.03.005-.028.005-.031.007-.027.006-.03.022-.026.007-.031.01-.025.008-.031.012-.024.009-.031.013-.022.01-.031.015-.021.011-.032.017-.018.01-.033.02-.015.01-.035.024-.012.008-.037.027-.009.007-.038.031-.007.006-.038.034a1.222 1.222 0 0 0-.384.892v6.734A1.228 1.228 0 0 0 1.226 96.2h12.23a1.228 1.228 0 0 0 1.226-1.226v-4.787a2.592 2.592 0 0 0-.607-5.111zm-2.592 2.593a2.575 2.575 0 0 0 .415 1.4l-3.7 3.25a1.3 1.3 0 0 1-1.719 0l-5.291-4.65h.035zm2.548 7.309a.576.576 0 0 1-.575.575H1.226a.576.576 0 0 1-.575-.575v-6.734a.574.574 0 0 1 .023-.161l5.378 4.727a1.958 1.958 0 0 0 2.579 0l3.687-3.24a2.582 2.582 0 0 0 1.715.689v4.719zm.651-5.467a1.932 1.932 0 0 1-.607.1h-.044a1.932 1.932 0 0 1-1.222-.471 1.955 1.955 0 0 1-.415-.5 1.928 1.928 0 0 1-.259-.966 1.941 1.941 0 1 1 2.548 1.843z" class="cls-1" transform="translate(0 -85.076)"/>
        <path id="Path_1030" d="M418.26 128.966a.11.11 0 0 0-.056-.093.22.22 0 0 0-.125-.037.128.128 0 0 0-.084.031l-.368.28a.163.163 0 0 0-.078.146.184.184 0 0 0 .014.069.186.186 0 0 0 .024.043.113.113 0 0 0 .094.05.108.108 0 0 0 .075-.028l.02-.02.022.007-.021-.007.08-.08v1.664a.1.1 0 0 0 .059.094.246.246 0 0 0 .074.027.343.343 0 0 0 .069.007.283.283 0 0 0 .142-.034.1.1 0 0 0 .061-.094v-2.026z" class="cls-1" transform="translate(-403.957 -127.41)"/>
    </g>
</svg>
