<svg xmlns="http://www.w3.org/2000/svg" width="18" height="18" viewBox="0 0 18 18">
    <defs>
        <style>
            .cls-2{fill:#fff}
        </style>
    </defs>
    <g id="Group_4105" transform="translate(-456 -551)">
        <circle id="Ellipse_145" cx="9" cy="9" r="9" fill="#40b1be" transform="translate(456 551)"/>
        <g id="Group_3910" transform="translate(459 554)">
            <g id="challenges">
                <path id="Path_13082" d="M3 43.974v3a.4.4 0 1 0 .8 0v-2.8h-.2a.988.988 0 0 1-.6-.2z" class="cls-2" transform="translate(-3 -35.79)"/>
                <path id="Path_13083" d="M3.6 23.794H5a.4.4 0 0 1 .4.4v1.2a.4.4 0 0 0 .8 0v-1.8a.6.6 0 0 0-.6-.6h-.8V20.8h1.584A1 1 0 0 0 7 20.587l1.263-.987a.334.334 0 0 0 .13-.266.337.337 0 0 0-.337-.334h-.083a.34.34 0 0 0-.2.068l-1.351 1.011a.6.6 0 0 1-.359.12H4.4A1.4 1.4 0 0 0 3 21.6v1.6a.6.6 0 0 0 .6.594z" class="cls-2" transform="translate(-3 -15.804)"/>
                <path id="Path_13084" d="M18.539 23.958l.285.46-1.071 1.072-.46-.285a3.175 3.175 0 0 1-.666.276l-.124.526h-1.515l-.084-.356-3.952 2.749v.4a.8.8 0 0 1-1.364.565l-.01-.012-1.023.715v.332a.791.791 0 0 1-.111.4h10.5v-7.537l-.127.03a3.171 3.171 0 0 1-.278.665zM9.354 30.4h-.4V30h.4zm.8 0h-.4V30h.4zm.8 0h-.4V30h.4zm.587-1.434l-.228-.328.326-.227.228.328zm.725-.5l-.228-.328 2.719-1.892.228.328zm6.276 1.934h-.4V30h.4zm0-.8h-.4v-.4h.4zm0-.8h-.4v-.4h.4z" class="cls-2" transform="translate(-7.357 -19.216)"/>
                <circle id="Ellipse_138" cx="1.076" cy="1.076" r="1.076" class="cls-2" transform="translate(.415 2.028)"/>
                <circle id="Ellipse_139" cx="1.076" cy="1.076" r="1.076" class="cls-2" transform="translate(7.406 2.028)"/>
                <path id="Path_13085" d="M37 9a2 2 0 1 0 2 2 2 2 0 0 0-2-2zm0 3.2a1.2 1.2 0 1 1 1.2-1.2 1.2 1.2 0 0 1-1.2 1.2z" class="cls-2" transform="translate(-28.608 -7.802)"/>
                <path id="Path_13086" d="M34.938 5.648l-.029-.119a2.772 2.772 0 0 0-.323-.78l-.064-.1.245-.4-.624-.624-.4.245-.1-.064a2.772 2.772 0 0 0-.78-.323l-.119-.029L32.637 3h-.882l-.107.454-.119.029a2.772 2.772 0 0 0-.78.323l-.1.064-.4-.245-.624.624.245.4-.064.1a2.772 2.772 0 0 0-.323.78l-.029.119-.454.107v.055a.737.737 0 0 1 .6.722.728.728 0 0 1-.1.371 2.778 2.778 0 0 0 .311.739l.064.1-.245.4.624.624.4-.245.1.064a2.772 2.772 0 0 0 .78.323l.119.029.107.454h.882l.107-.454.119-.029a2.772 2.772 0 0 0 .78-.323l.1-.064.4.245.624-.624-.245-.4.064-.1a2.772 2.772 0 0 0 .323-.78l.029-.119.454-.107v-.881zM32.2 8.593a2.4 2.4 0 1 1 2.4-2.4 2.4 2.4 0 0 1-2.4 2.4z" class="cls-2" transform="translate(-23.807 -3)"/>
            </g>
        </g>
    </g>
</svg>
