<svg id="menu_2_" data-name="menu (2)" xmlns="http://www.w3.org/2000/svg" width="165.193" height="119.305" viewBox="0 0 165.193 119.305">
  <path id="Path_51163" data-name="Path 51163" d="M158.31,136.434H6.883a6.883,6.883,0,0,1,0-13.766H158.31a6.883,6.883,0,0,1,0,13.766Zm0,0" transform="translate(0 -69.898)" fill="#fff"/>
  <path id="Path_51164" data-name="Path 51164" d="M158.31,13.766H6.883A6.883,6.883,0,0,1,6.883,0H158.31a6.883,6.883,0,1,1,0,13.766Zm0,0" fill="#fff"/>
  <path id="Path_51165" data-name="Path 51165" d="M158.31,259.1H6.883a6.883,6.883,0,0,1,0-13.766H158.31a6.883,6.883,0,0,1,0,13.766Zm0,0" transform="translate(0 -139.793)" fill="#fff"/>
</svg>
