<svg xmlns="http://www.w3.org/2000/svg" width="56.718" height="56.716" viewBox="0 0 56.718 56.716">
  <g id="not-found_1_" data-name="not-found (1)" transform="translate(0 0)">
    <path id="Path_16681" data-name="Path 16681" d="M78.534,61.044a1.105,1.105,0,1,0-.5,2.153,15.1,15.1,0,1,1-8.155.367,1.1,1.1,0,1,0-.691-2.1,17.132,17.132,0,0,0-6.822,4.2,17.319,17.319,0,1,0,16.166-4.625Zm0,0" transform="translate(-50.956 -54.256)" fill="#40b1be" fill-rule="evenodd"/>
    <path id="Path_16682" data-name="Path 16682" d="M55.214,47.935l-11.58-11.58a23.648,23.648,0,1,0-7.279,7.279l11.58,11.58a5.147,5.147,0,1,0,7.279-7.279Zm-1.563,5.716a2.95,2.95,0,0,1-4.154,0L37.278,41.432a1.105,1.105,0,0,0-1.411-.127A21.453,21.453,0,0,1,8.493,8.493,21.453,21.453,0,0,1,41.305,35.867a1.1,1.1,0,0,0,.127,1.411L53.652,49.5a2.941,2.941,0,0,1,0,4.154Zm0,0" transform="translate(-0.001 0)" fill="#40b1be" fill-rule="evenodd"/>
    <path id="Path_16683" data-name="Path 16683" d="M164.115,150.774a1.105,1.105,0,0,0-1.563,0l-5.108,5.108-5.108-5.108a1.1,1.1,0,1,0-1.563,1.563l5.108,5.108-5.108,5.108a1.1,1.1,0,1,0,1.563,1.563l5.108-5.108,5.108,5.108a1.105,1.105,0,0,0,1.563-1.563l-5.108-5.108,5.108-5.108a1.105,1.105,0,0,0,0-1.563Zm0,0" transform="translate(-133.784 -133.783)" fill="#40b1be" fill-rule="evenodd"/>
    <path id="Path_16684" data-name="Path 16684" d="M198.106,59.589A1.1,1.1,0,1,0,197,58.484,1.107,1.107,0,0,0,198.106,59.589Zm0,0" transform="translate(-175.177 -51.022)" fill="#40b1be" fill-rule="evenodd"/>
  </g>
</svg>
