<svg xmlns="http://www.w3.org/2000/svg" width="11.063" height="14.22" viewBox="0 0 11.063 14.22">
    <path fill="#fff" d="M6.455 10.313a3.872 3.872 0 0 1-1.908-.908c-.373 1.958-.829 3.834-2.18 4.815-.417-2.959.612-5.181 1.09-7.54-.815-1.372.1-4.132 1.817-3.452 2.115.836-1.831 5.1.818 5.633 2.766.556 3.9-4.8 2.18-6.541C5.793-.2 1.058 2.262 1.64 5.862c.142.88 1.051 1.147.363 2.362-1.586-.351-2.059-1.6-2-3.27A5.338 5.338 0 0 1 4.82.048C7.807-.287 10.611 1.145 11 3.954c.435 3.171-1.349 6.606-4.542 6.359z"/>
</svg>
