<svg xmlns="http://www.w3.org/2000/svg" width="32" height="32" viewBox="0 0 32 32">
    <defs>
        <style>
            .cls-2{fill:#fff}
        </style>
    </defs>
    <g id="Group_4099" transform="translate(-1060 -426)">
        <circle id="Ellipse_148" cx="16" cy="16" r="16" fill="#1f4bb1" transform="translate(1060 426)"/>
        <g id="Group_4081" transform="translate(1067 434)">
            <g id="Group_4054" transform="translate(11.798 3.265)">
                <g id="Group_4053">
                    <path id="Path_16802" d="M158.451 100.746a.287.287 0 0 1-.287-.287v-6.052h-1.752a.287.287 0 0 1 0-.574h2.039a.287.287 0 0 1 .287.287v6.338a.287.287 0 0 1-.287.288z" class="cls-2" transform="translate(-156.125 -93.833)"/>
                </g>
            </g>
            <g id="Group_4056" transform="translate(2.699 3.265)">
                <g id="Group_4055">
                    <path id="Path_16803" d="M77.412 100.746a.287.287 0 0 1-.287-.287V94.12a.287.287 0 0 1 .287-.287h2.039a.287.287 0 0 1 0 .574H77.7v6.051a.287.287 0 0 1-.288.288z" class="cls-2" transform="translate(-77.125 -93.833)"/>
                </g>
            </g>
            <g id="Group_4058" transform="translate(11.957 10.03)">
                <g id="Group_4057">
                    <path id="Path_16804" d="M161.912 152.043h-4.458a.421.421 0 0 1 .06.1l.263.886a.423.423 0 0 0 .393.266h3.73a.423.423 0 0 1 .423.423v-1.271a.41.41 0 0 0-.411-.404z" class="cls-2" transform="translate(-157.454 -152.043)"/>
                </g>
            </g>
            <g id="Group_4060" transform="translate(10.089 9.931)">
                <g id="Group_4059">
                    <path id="Path_16805" d="M147.5 152.046h-3.727a.423.423 0 0 1-.393-.266l-.263-.886a.423.423 0 0 0-.393-.266h-1.113a.423.423 0 0 0-.423.423v4.621a.423.423 0 0 0 .423.423h5.889a.423.423 0 0 0 .423-.423v-3.2a.423.423 0 0 0-.423-.423z" class="cls-2" transform="translate(-141.191 -150.628)"/>
                </g>
            </g>
            <g id="Group_4062" transform="translate(9.801 9.643)">
                <g id="Group_4061">
                    <path id="Path_16806" d="M145.288 154.17H139.4a.711.711 0 0 1-.71-.71v-4.621a.711.711 0 0 1 .71-.71h1.113a.707.707 0 0 1 .66.447c0 .008.006.017.009.025l.258.87a.135.135 0 0 0 .122.077h3.727a.711.711 0 0 1 .71.71v3.2a.711.711 0 0 1-.711.712zm-5.888-5.47a.136.136 0 0 0-.136.136v4.621a.136.136 0 0 0 .136.136h5.888a.136.136 0 0 0 .136-.136v-3.2a.136.136 0 0 0-.136-.136h-3.727a.707.707 0 0 1-.66-.447c0-.008-.006-.017-.009-.025l-.258-.87a.135.135 0 0 0-.122-.077H139.4z" class="cls-2" transform="translate(-138.689 -148.128)"/>
                </g>
            </g>
            <g id="Group_4064" transform="translate(11.75 9.745)">
                <g id="Group_4063">
                    <path id="Path_16807" d="M160.72 151.8a.287.287 0 0 1-.287-.287v-1.271a.123.123 0 0 0-.121-.121h-4.378a.287.287 0 1 1 0-.574h4.378a.7.7 0 0 1 .7.7v1.271a.287.287 0 0 1-.292.282z" class="cls-2" transform="translate(-155.646 -149.543)"/>
                </g>
            </g>
            <g id="Group_4066" transform="translate(7.059 .45)">
                <g id="Group_4065">
                    <path id="Path_16808" d="M119.412 70.043h-4.458a.425.425 0 0 1 .06.1l.263.886a.423.423 0 0 0 .393.266h3.73a.423.423 0 0 1 .423.423v-1.266a.41.41 0 0 0-.411-.409z" class="cls-2" transform="translate(-114.954 -70.043)"/>
                </g>
            </g>
            <g id="Group_4068" transform="translate(5.188 .287)">
                <g id="Group_4067">
                    <path id="Path_16809" d="M105 70.046h-3.727a.423.423 0 0 1-.393-.266l-.263-.886a.423.423 0 0 0-.393-.266h-1.11a.423.423 0 0 0-.423.423v4.621a.423.423 0 0 0 .423.423H105a.423.423 0 0 0 .423-.423v-3.2a.423.423 0 0 0-.423-.426z" class="cls-2" transform="translate(-98.691 -68.628)"/>
                </g>
            </g>
            <g id="Group_4070" transform="translate(4.901)">
                <g id="Group_4069">
                    <path id="Path_16810" d="M102.788 72.171H96.9a.711.711 0 0 1-.71-.71v-4.622a.711.711 0 0 1 .71-.71h1.113a.707.707 0 0 1 .66.447c0 .008.006.017.009.025l.258.87a.135.135 0 0 0 .122.077h3.727a.711.711 0 0 1 .71.71v3.2a.711.711 0 0 1-.711.713zM96.9 66.7a.136.136 0 0 0-.136.136v4.624a.136.136 0 0 0 .136.136h5.888a.136.136 0 0 0 .136-.136v-3.2a.136.136 0 0 0-.136-.136h-3.727a.707.707 0 0 1-.66-.447c0-.008-.006-.017-.009-.025l-.258-.87a.135.135 0 0 0-.122-.077z" class="cls-2" transform="translate(-96.189 -66.129)"/>
                </g>
            </g>
            <g id="Group_4072" transform="translate(6.83 .163)">
                <g id="Group_4071">
                    <path id="Path_16811" d="M118.054 69.8a.287.287 0 0 1-.287-.287v-1.274a.123.123 0 0 0-.121-.121h-4.4a.287.287 0 1 1 0-.574h4.4a.7.7 0 0 1 .7.7v1.271a.287.287 0 0 1-.292.285z" class="cls-2" transform="translate(-112.958 -67.543)"/>
                </g>
            </g>
            <g id="Group_4074" transform="translate(2.156 10.03)">
                <g id="Group_4073">
                    <path id="Path_16812" d="M76.912 152.043h-4.458a.422.422 0 0 1 .06.1l.263.886a.423.423 0 0 0 .393.266h3.73a.423.423 0 0 1 .423.423v-1.271a.41.41 0 0 0-.411-.404z" class="cls-2" transform="translate(-72.454 -152.043)"/>
                </g>
            </g>
            <g id="Group_4076" transform="translate(.287 9.931)">
                <g id="Group_4075">
                    <path id="Path_16813" d="M62.5 152.046h-3.725a.423.423 0 0 1-.393-.266l-.263-.886a.423.423 0 0 0-.393-.266h-1.112a.423.423 0 0 0-.423.423v4.621a.423.423 0 0 0 .423.423H62.5a.423.423 0 0 0 .423-.423v-3.2a.423.423 0 0 0-.423-.423z" class="cls-2" transform="translate(-56.191 -150.628)"/>
                </g>
            </g>
            <g id="Group_4078" transform="translate(0 9.643)">
                <g id="Group_4077">
                    <path id="Path_16814" d="M60.289 154.17H54.4a.711.711 0 0 1-.71-.71v-4.621a.711.711 0 0 1 .71-.71h1.113a.707.707 0 0 1 .66.447c0 .008.006.017.009.025l.258.87a.135.135 0 0 0 .122.077h3.727a.711.711 0 0 1 .71.71v3.2a.712.712 0 0 1-.71.712zM54.4 148.7a.136.136 0 0 0-.136.136v4.621a.136.136 0 0 0 .136.136h5.888a.136.136 0 0 0 .136-.136v-3.2a.136.136 0 0 0-.136-.136h-3.726a.707.707 0 0 1-.66-.447c0-.008-.006-.017-.009-.025l-.258-.87a.135.135 0 0 0-.122-.077H54.4z" class="cls-2" transform="translate(-53.69 -148.128)"/>
                </g>
            </g>
            <g id="Group_4080" transform="translate(1.937 9.745)">
                <g id="Group_4079">
                    <path id="Path_16815" d="M75.632 151.8a.287.287 0 0 1-.287-.287v-1.271a.123.123 0 0 0-.121-.121h-4.39a.287.287 0 0 1 0-.574h4.39a.7.7 0 0 1 .7.7v1.271a.287.287 0 0 1-.292.282z" class="cls-2" transform="translate(-70.547 -149.543)"/>
                </g>
            </g>
        </g>
    </g>
</svg>
