<svg xmlns="http://www.w3.org/2000/svg" width="18" height="18" viewBox="0 0 18 18">
    <defs>
        <style>
            .cls-2{fill:#fff}
        </style>
    </defs>
    <g id="Group_4089" transform="translate(-457 -458)">
        <circle id="Ellipse_144" cx="9" cy="9" r="9" fill="#1f4bb1" transform="translate(457 458)"/>
        <g id="Group_3924" transform="translate(460 461)">
            <path id="Path_13064" d="M248 249.827a8.708 8.708 0 0 1 1.736.212 8.014 8.014 0 0 0 .31-2.043H248zm0 0" class="cls-2" transform="translate(-241.92 -241.916)"/>
            <path id="Path_13065" d="M248 330.261c.643-.135 1.214-.832 1.591-1.832a8.263 8.263 0 0 0-1.591-.191zm0 0" class="cls-2" transform="translate(-241.92 -319.871)"/>
            <path id="Path_13066" d="M326.934 248h-1.82a8.541 8.541 0 0 1-.313 2.16 5.872 5.872 0 0 1 1.138.462 4.543 4.543 0 0 0 .995-2.622zm0 0" class="cls-2" transform="translate(-316.533 -241.916)"/>
            <path id="Path_13067" d="M288.966 340.32q.181-.078.355-.17l.048-.027c.118-.065.234-.134.346-.21l.029-.02c.117-.08.232-.165.342-.256s.214-.188.315-.29l.018-.018a5.53 5.53 0 0 0-.973-.38 4.4 4.4 0 0 1-.893 1.524c.12-.038.238-.081.354-.128zm0 0" class="cls-2" transform="translate(-281.319 -330.277)"/>
            <path id="Path_13068" d="M248 162.375h2.046a8.016 8.016 0 0 0-.31-2.043 8.7 8.7 0 0 1-1.736.212zm0 0" class="cls-2" transform="translate(-241.92 -156.751)"/>
            <path id="Path_13069" d="M325.939 140a5.859 5.859 0 0 1-1.138.463 8.544 8.544 0 0 1 .313 2.16h1.82a4.545 4.545 0 0 0-.995-2.623zm0 0" class="cls-2" transform="translate(-316.532 -136.995)"/>
            <path id="Path_13070" d="M248 80.836v2.022a8.265 8.265 0 0 0 1.591-.19c-.377-1-.948-1.696-1.591-1.832zm0 0" class="cls-2" transform="translate(-241.92 -79.521)"/>
            <path id="Path_13071" d="M290.389 88.719l-.019-.018c-.1-.1-.205-.2-.315-.29s-.223-.176-.34-.256l-.03-.022c-.112-.075-.228-.145-.346-.21l-.049-.027q-.174-.093-.355-.17l-.059-.025c-.116-.048-.234-.09-.354-.128a4.4 4.4 0 0 1 .893 1.524 5.556 5.556 0 0 0 .974-.378zm0 0" class="cls-2" transform="translate(-281.288 -86.068)"/>
            <path id="Path_13072" d="M177.794 330.261v-2.023a8.264 8.264 0 0 0-1.59.19c.375.999.947 1.697 1.59 1.833zm0 0" class="cls-2" transform="translate(-172.17 -319.871)"/>
            <path id="Path_13073" d="M162.257 248h-2.046a8.013 8.013 0 0 0 .31 2.043 8.709 8.709 0 0 1 1.736-.212zm0 0" class="cls-2" transform="translate(-156.633 -241.916)"/>
            <path id="Path_13074" d="M162.257 160.544a8.7 8.7 0 0 1-1.736-.212 8.015 8.015 0 0 0-.31 2.043h2.046zm0 0" class="cls-2" transform="translate(-156.633 -156.751)"/>
            <path id="Path_13075" d="M177.794 80.836c-.643.135-1.214.832-1.59 1.832a8.264 8.264 0 0 0 1.59.19zm0 0" class="cls-2" transform="translate(-172.17 -79.521)"/>
            <path id="Path_13076" d="M127.843 87.59c-.12.038-.238.081-.354.128l-.059.025c-.121.052-.239.108-.355.17l-.048.027c-.118.065-.234.135-.346.21l-.029.02c-.117.08-.231.165-.342.256s-.214.188-.315.29l-.018.018a5.543 5.543 0 0 0 .973.38 4.406 4.406 0 0 1 .893-1.524zm0 0" class="cls-2" transform="translate(-123.374 -86.082)"/>
            <path id="Path_13077" d="M126.327 339.621c.109.091.223.176.34.256l.03.021c.112.075.228.145.346.21l.049.027q.174.093.355.17l.059.025c.116.048.234.091.354.128a4.4 4.4 0 0 1-.893-1.524 5.554 5.554 0 0 0-.973.38l.019.018c.1.101.205.198.314.289zm0 0" class="cls-2" transform="translate(-123.391 -330.262)"/>
            <path id="Path_13078" d="M80.363 142.618h1.82a8.542 8.542 0 0 1 .313-2.16 5.859 5.859 0 0 1-1.138-.458 4.544 4.544 0 0 0-.995 2.618zm0 0" class="cls-2" transform="translate(-79.062 -136.995)"/>
            <path id="Path_13079" d="M81.358 250.618a5.869 5.869 0 0 1 1.138-.462 8.542 8.542 0 0 1-.313-2.16h-1.82a4.543 4.543 0 0 0 .995 2.622zm0 0" class="cls-2" transform="translate(-79.061 -241.916)"/>
            <path id="Path_13080" d="M80.689 88.388a.2.2 0 0 0-.306.242 5.405 5.405 0 0 1 1.174 3.384 5.462 5.462 0 0 1-8.84 4.291h.648a.2.2 0 0 0 0-.39h-1.173a.192.192 0 0 0-.05.01l-.025.005-.013.009a.2.2 0 0 0-.049.035l-.012.02a.184.184 0 0 0-.027.043.207.207 0 0 0-.009.044.193.193 0 0 0-.007.029v1.17a.2.2 0 1 0 .39 0v-.74a5.85 5.85 0 0 0 9.558-4.527 5.791 5.791 0 0 0-1.258-3.626zm0 0" class="cls-2" transform="translate(-70.244 -86.162)"/>
            <path id="Path_13081" d="M.389 5.849A5.462 5.462 0 0 1 9.23 1.558h-.648a.2.2 0 1 0 0 .39h1.172a.189.189 0 0 0 .058-.012h.016l.019-.012a.192.192 0 0 0 .044-.031.167.167 0 0 0 .012-.02.132.132 0 0 0 .036-.087.193.193 0 0 0 .006-.028V.583a.2.2 0 0 0-.39 0v.74A5.85 5.85 0 0 0 0 5.849a5.79 5.79 0 0 0 1.267 3.638.2.2 0 1 0 .306-.243 5.4 5.4 0 0 1-1.183-3.4zm0 0" class="cls-2" transform="translate(.001 .002)"/>
        </g>
    </g>
</svg>
