<svg xmlns="http://www.w3.org/2000/svg" width="23" height="24" viewBox="0 0 23 24">
    <g transform="translate(-.117 .5)">
        <ellipse cx="11.5" cy="12" fill="#1ab3f1" rx="11.5" ry="12" transform="translate(.117 -.5)"/>
        <path fill="#fff" d="M12.676 1.22a5.189 5.189 0 0 1-1.494.409A2.608 2.608 0 0 0 12.326.19a5.206 5.206 0 0 1-1.651.631 2.6 2.6 0 0 0-4.432 2.372A7.382 7.382 0 0 1 .882.476a2.6 2.6 0 0 0 .8 3.472 2.582 2.582 0 0 1-1.173-.326v.033A2.6 2.6 0 0 0 2.6 6.205a2.611 2.611 0 0 1-1.174.045A2.6 2.6 0 0 0 3.85 8.056 5.218 5.218 0 0 1 .62 9.169 5.236 5.236 0 0 1 0 9.133 7.356 7.356 0 0 0 3.986 10.3a7.349 7.349 0 0 0 7.4-7.4c0-.113 0-.225-.008-.336a5.274 5.274 0 0 0 1.3-1.346z" transform="translate(6.068 6.71)"/>
    </g>
</svg>
