<svg xmlns="http://www.w3.org/2000/svg" width="15.191" height="12.345" viewBox="0 0 15.191 12.345">
    <path fill="#fff" d="M15.191 1.461a6.218 6.218 0 0 1-1.79.49 3.125 3.125 0 0 0 1.37-1.723 6.239 6.239 0 0 1-1.979.756 3.119 3.119 0 0 0-5.311 2.843A8.847 8.847 0 0 1 1.057.57a3.12 3.12 0 0 0 .964 4.161 3.1 3.1 0 0 1-1.411-.39v.04a3.118 3.118 0 0 0 2.5 3.056 3.129 3.129 0 0 1-1.41.053 3.12 3.12 0 0 0 2.914 2.164 6.253 6.253 0 0 1-3.871 1.334A6.276 6.276 0 0 1 0 10.945a8.815 8.815 0 0 0 4.777 1.4 8.807 8.807 0 0 0 8.867-8.868c0-.135 0-.27-.009-.4a6.32 6.32 0 0 0 1.555-1.613z"/>
</svg>
