<svg xmlns="http://www.w3.org/2000/svg" width="11.189" height="9.923" viewBox="0 0 11.189 9.923">
    <defs>
        <style>
            .cls-1{fill:#40b1be}
        </style>
    </defs>
    <g id="Group_3935" transform="translate(-2098.214 -2430.42)">
        <g id="Group_3930" transform="translate(2098.214 2433.486)">
            <g id="Group_3929">
                <path id="Path_16762" d="M9.5 167.1a.949.949 0 0 1-.782-.412l-.465-.676a3.167 3.167 0 0 1-5.911-1.234h.3a.317.317 0 0 0 .261-.5l-.461-.671-.7-1.017a.316.316 0 0 0-.261-.137h-.039l-.038.007a.317.317 0 0 0-.184.128l-1.164 1.698a.317.317 0 0 0 .261.5h.326a4.853 4.853 0 0 0 8.275 3.114 4.886 4.886 0 0 0 .645-.8z" class="cls-1" transform="translate(0 -162.461)"/>
            </g>
        </g>
        <g id="Group_3934" transform="translate(2099.841 2430.42)">
            <g id="Group_3933">
                <path id="Path_16764" d="M75.31 34.245a.317.317 0 0 0-.28-.169h-.33a4.853 4.853 0 0 0-8.275-3.115 4.886 4.886 0 0 0-.645.8h.067a.949.949 0 0 1 .782.412l.465.676a3.167 3.167 0 0 1 5.911 1.234h-.3a.317.317 0 0 0-.261.5l.461.671.7 1.017a.317.317 0 0 0 .522 0l.419-.61.741-1.078a.317.317 0 0 0 .023-.338z" class="cls-1" transform="translate(-65.784 -29.539)"/>
            </g>
        </g>
    </g>
</svg>
